<svg xmlns="http://www.w3.org/2000/svg" version="1.1" xmlns:xlink="http://www.w3.org/1999/xlink" xmlns:svgjs="http://svgjs.dev/svgjs" viewBox="0 0 800 800"><defs><linearGradient gradientTransform="rotate(270)" x1="50%" y1="0%" x2="50%" y2="100%" id="sssquiggly-grad"><stop stop-color="#facd66ff" stop-opacity="1" offset="0%"></stop><stop stop-color="hsla(51, 89%, 28%, 1.00)" stop-opacity="1" offset="100%"></stop></linearGradient></defs><g stroke-width="3.5" stroke="url(#sssquiggly-grad)" fill="none" stroke-linecap="round" transform="matrix(1,0,0,1,-5,-647.4339256286621)"><path d="M10,10C19.02777777777778,12.083333333333334,33.19444444444444,23.958333333333332,53.333333333333336,20C73.47222222222223,16.041666666666668,84.44444444444446,-11.291666666666666,106.66666666666667,-9C128.88888888888889,-6.708333333333334,137.77777777777777,35.583333333333336,160,31C182.22222222222223,26.416666666666668,191.11111111111111,-34.333333333333336,213.33333333333334,-31C235.55555555555557,-27.666666666666668,244.44444444444446,41.791666666666664,266.6666666666667,47C288.8888888888889,52.208333333333336,297.77777777777777,-4.958333333333333,320,-6C342.22222222222223,-7.041666666666667,351.11111111111114,43.041666666666664,373.33333333333337,42C395.5555555555556,40.958333333333336,404.44444444444446,-8.708333333333334,426.6666666666667,-11C448.8888888888889,-13.291666666666666,457.77777777777777,27.875,480,31C502.22222222222223,34.125,511.11111111111114,0.25,533.3333333333334,4C555.5555555555557,7.75,564.4444444444446,47.958333333333336,586.6666666666667,49C608.8888888888889,50.041666666666664,617.7777777777778,5.666666666666667,640,9C662.2222222222222,12.333333333333332,671.1111111111111,67.5,693.3333333333334,65C715.5555555555557,62.5,724.4444444444446,-3.4166666666666665,746.6666666666667,-3C768.8888888888889,-2.5833333333333335,788.8888888888889,52.41666666666667,800,67"></path><path d="M10,10C19.02777777777778,12.083333333333334,33.19444444444444,23.958333333333332,53.333333333333336,20C73.47222222222223,16.041666666666668,84.44444444444446,-11.291666666666666,106.66666666666667,-9C128.88888888888889,-6.708333333333334,137.77777777777777,35.583333333333336,160,31C182.22222222222223,26.416666666666668,191.11111111111111,-34.333333333333336,213.33333333333334,-31C235.55555555555557,-27.666666666666668,244.44444444444446,41.791666666666664,266.6666666666667,47C288.8888888888889,52.208333333333336,297.77777777777777,-4.958333333333333,320,-6C342.22222222222223,-7.041666666666667,351.11111111111114,43.041666666666664,373.33333333333337,42C395.5555555555556,40.958333333333336,404.44444444444446,-8.708333333333334,426.6666666666667,-11C448.8888888888889,-13.291666666666666,457.77777777777777,27.875,480,31C502.22222222222223,34.125,511.11111111111114,0.25,533.3333333333334,4C555.5555555555557,7.75,564.4444444444446,47.958333333333336,586.6666666666667,49C608.8888888888889,50.041666666666664,617.7777777777778,5.666666666666667,640,9C662.2222222222222,12.333333333333332,671.1111111111111,67.5,693.3333333333334,65C715.5555555555557,62.5,724.4444444444446,-3.4166666666666665,746.6666666666667,-3C768.8888888888889,-2.5833333333333335,788.8888888888889,52.41666666666667,800,67" transform="matrix(1,0,0,1,0,2059)"></path><path d="M10,10C19.02777777777778,12.083333333333334,33.19444444444444,23.958333333333332,53.333333333333336,20C73.47222222222223,16.041666666666668,84.44444444444446,-11.291666666666666,106.66666666666667,-9C128.88888888888889,-6.708333333333334,137.77777777777777,35.583333333333336,160,31C182.22222222222223,26.416666666666668,191.11111111111111,-34.333333333333336,213.33333333333334,-31C235.55555555555557,-27.666666666666668,244.44444444444446,41.791666666666664,266.6666666666667,47C288.8888888888889,52.208333333333336,297.77777777777777,-4.958333333333333,320,-6C342.22222222222223,-7.041666666666667,351.11111111111114,43.041666666666664,373.33333333333337,42C395.5555555555556,40.958333333333336,404.44444444444446,-8.708333333333334,426.6666666666667,-11C448.8888888888889,-13.291666666666666,457.77777777777777,27.875,480,31C502.22222222222223,34.125,511.11111111111114,0.25,533.3333333333334,4C555.5555555555557,7.75,564.4444444444446,47.958333333333336,586.6666666666667,49C608.8888888888889,50.041666666666664,617.7777777777778,5.666666666666667,640,9C662.2222222222222,12.333333333333332,671.1111111111111,67.5,693.3333333333334,65C715.5555555555557,62.5,724.4444444444446,-3.4166666666666665,746.6666666666667,-3C768.8888888888889,-2.5833333333333335,788.8888888888889,52.41666666666667,800,67" transform="matrix(1,0,0,1,0,1988)"></path><path d="M10,10C19.02777777777778,12.083333333333334,33.19444444444444,23.958333333333332,53.333333333333336,20C73.47222222222223,16.041666666666668,84.44444444444446,-11.291666666666666,106.66666666666667,-9C128.88888888888889,-6.708333333333334,137.77777777777777,35.583333333333336,160,31C182.22222222222223,26.416666666666668,191.11111111111111,-34.333333333333336,213.33333333333334,-31C235.55555555555557,-27.666666666666668,244.44444444444446,41.791666666666664,266.6666666666667,47C288.8888888888889,52.208333333333336,297.77777777777777,-4.958333333333333,320,-6C342.22222222222223,-7.041666666666667,351.11111111111114,43.041666666666664,373.33333333333337,42C395.5555555555556,40.958333333333336,404.44444444444446,-8.708333333333334,426.6666666666667,-11C448.8888888888889,-13.291666666666666,457.77777777777777,27.875,480,31C502.22222222222223,34.125,511.11111111111114,0.25,533.3333333333334,4C555.5555555555557,7.75,564.4444444444446,47.958333333333336,586.6666666666667,49C608.8888888888889,50.041666666666664,617.7777777777778,5.666666666666667,640,9C662.2222222222222,12.333333333333332,671.1111111111111,67.5,693.3333333333334,65C715.5555555555557,62.5,724.4444444444446,-3.4166666666666665,746.6666666666667,-3C768.8888888888889,-2.5833333333333335,788.8888888888889,52.41666666666667,800,67" transform="matrix(1,0,0,1,0,1917)"></path><path d="M10,10C19.02777777777778,12.083333333333334,33.19444444444444,23.958333333333332,53.333333333333336,20C73.47222222222223,16.041666666666668,84.44444444444446,-11.291666666666666,106.66666666666667,-9C128.88888888888889,-6.708333333333334,137.77777777777777,35.583333333333336,160,31C182.22222222222223,26.416666666666668,191.11111111111111,-34.333333333333336,213.33333333333334,-31C235.55555555555557,-27.666666666666668,244.44444444444446,41.791666666666664,266.6666666666667,47C288.8888888888889,52.208333333333336,297.77777777777777,-4.958333333333333,320,-6C342.22222222222223,-7.041666666666667,351.11111111111114,43.041666666666664,373.33333333333337,42C395.5555555555556,40.958333333333336,404.44444444444446,-8.708333333333334,426.6666666666667,-11C448.8888888888889,-13.291666666666666,457.77777777777777,27.875,480,31C502.22222222222223,34.125,511.11111111111114,0.25,533.3333333333334,4C555.5555555555557,7.75,564.4444444444446,47.958333333333336,586.6666666666667,49C608.8888888888889,50.041666666666664,617.7777777777778,5.666666666666667,640,9C662.2222222222222,12.333333333333332,671.1111111111111,67.5,693.3333333333334,65C715.5555555555557,62.5,724.4444444444446,-3.4166666666666665,746.6666666666667,-3C768.8888888888889,-2.5833333333333335,788.8888888888889,52.41666666666667,800,67" transform="matrix(1,0,0,1,0,1846)"></path><path d="M10,10C19.02777777777778,12.083333333333334,33.19444444444444,23.958333333333332,53.333333333333336,20C73.47222222222223,16.041666666666668,84.44444444444446,-11.291666666666666,106.66666666666667,-9C128.88888888888889,-6.708333333333334,137.77777777777777,35.583333333333336,160,31C182.22222222222223,26.416666666666668,191.11111111111111,-34.333333333333336,213.33333333333334,-31C235.55555555555557,-27.666666666666668,244.44444444444446,41.791666666666664,266.6666666666667,47C288.8888888888889,52.208333333333336,297.77777777777777,-4.958333333333333,320,-6C342.22222222222223,-7.041666666666667,351.11111111111114,43.041666666666664,373.33333333333337,42C395.5555555555556,40.958333333333336,404.44444444444446,-8.708333333333334,426.6666666666667,-11C448.8888888888889,-13.291666666666666,457.77777777777777,27.875,480,31C502.22222222222223,34.125,511.11111111111114,0.25,533.3333333333334,4C555.5555555555557,7.75,564.4444444444446,47.958333333333336,586.6666666666667,49C608.8888888888889,50.041666666666664,617.7777777777778,5.666666666666667,640,9C662.2222222222222,12.333333333333332,671.1111111111111,67.5,693.3333333333334,65C715.5555555555557,62.5,724.4444444444446,-3.4166666666666665,746.6666666666667,-3C768.8888888888889,-2.5833333333333335,788.8888888888889,52.41666666666667,800,67" transform="matrix(1,0,0,1,0,1775)"></path><path d="M10,10C19.02777777777778,12.083333333333334,33.19444444444444,23.958333333333332,53.333333333333336,20C73.47222222222223,16.041666666666668,84.44444444444446,-11.291666666666666,106.66666666666667,-9C128.88888888888889,-6.708333333333334,137.77777777777777,35.583333333333336,160,31C182.22222222222223,26.416666666666668,191.11111111111111,-34.333333333333336,213.33333333333334,-31C235.55555555555557,-27.666666666666668,244.44444444444446,41.791666666666664,266.6666666666667,47C288.8888888888889,52.208333333333336,297.77777777777777,-4.958333333333333,320,-6C342.22222222222223,-7.041666666666667,351.11111111111114,43.041666666666664,373.33333333333337,42C395.5555555555556,40.958333333333336,404.44444444444446,-8.708333333333334,426.6666666666667,-11C448.8888888888889,-13.291666666666666,457.77777777777777,27.875,480,31C502.22222222222223,34.125,511.11111111111114,0.25,533.3333333333334,4C555.5555555555557,7.75,564.4444444444446,47.958333333333336,586.6666666666667,49C608.8888888888889,50.041666666666664,617.7777777777778,5.666666666666667,640,9C662.2222222222222,12.333333333333332,671.1111111111111,67.5,693.3333333333334,65C715.5555555555557,62.5,724.4444444444446,-3.4166666666666665,746.6666666666667,-3C768.8888888888889,-2.5833333333333335,788.8888888888889,52.41666666666667,800,67" transform="matrix(1,0,0,1,0,1704)"></path><path d="M10,10C19.02777777777778,12.083333333333334,33.19444444444444,23.958333333333332,53.333333333333336,20C73.47222222222223,16.041666666666668,84.44444444444446,-11.291666666666666,106.66666666666667,-9C128.88888888888889,-6.708333333333334,137.77777777777777,35.583333333333336,160,31C182.22222222222223,26.416666666666668,191.11111111111111,-34.333333333333336,213.33333333333334,-31C235.55555555555557,-27.666666666666668,244.44444444444446,41.791666666666664,266.6666666666667,47C288.8888888888889,52.208333333333336,297.77777777777777,-4.958333333333333,320,-6C342.22222222222223,-7.041666666666667,351.11111111111114,43.041666666666664,373.33333333333337,42C395.5555555555556,40.958333333333336,404.44444444444446,-8.708333333333334,426.6666666666667,-11C448.8888888888889,-13.291666666666666,457.77777777777777,27.875,480,31C502.22222222222223,34.125,511.11111111111114,0.25,533.3333333333334,4C555.5555555555557,7.75,564.4444444444446,47.958333333333336,586.6666666666667,49C608.8888888888889,50.041666666666664,617.7777777777778,5.666666666666667,640,9C662.2222222222222,12.333333333333332,671.1111111111111,67.5,693.3333333333334,65C715.5555555555557,62.5,724.4444444444446,-3.4166666666666665,746.6666666666667,-3C768.8888888888889,-2.5833333333333335,788.8888888888889,52.41666666666667,800,67" transform="matrix(1,0,0,1,0,1633)"></path><path d="M10,10C19.02777777777778,12.083333333333334,33.19444444444444,23.958333333333332,53.333333333333336,20C73.47222222222223,16.041666666666668,84.44444444444446,-11.291666666666666,106.66666666666667,-9C128.88888888888889,-6.708333333333334,137.77777777777777,35.583333333333336,160,31C182.22222222222223,26.416666666666668,191.11111111111111,-34.333333333333336,213.33333333333334,-31C235.55555555555557,-27.666666666666668,244.44444444444446,41.791666666666664,266.6666666666667,47C288.8888888888889,52.208333333333336,297.77777777777777,-4.958333333333333,320,-6C342.22222222222223,-7.041666666666667,351.11111111111114,43.041666666666664,373.33333333333337,42C395.5555555555556,40.958333333333336,404.44444444444446,-8.708333333333334,426.6666666666667,-11C448.8888888888889,-13.291666666666666,457.77777777777777,27.875,480,31C502.22222222222223,34.125,511.11111111111114,0.25,533.3333333333334,4C555.5555555555557,7.75,564.4444444444446,47.958333333333336,586.6666666666667,49C608.8888888888889,50.041666666666664,617.7777777777778,5.666666666666667,640,9C662.2222222222222,12.333333333333332,671.1111111111111,67.5,693.3333333333334,65C715.5555555555557,62.5,724.4444444444446,-3.4166666666666665,746.6666666666667,-3C768.8888888888889,-2.5833333333333335,788.8888888888889,52.41666666666667,800,67" transform="matrix(1,0,0,1,0,1562)"></path><path d="M10,10C19.02777777777778,12.083333333333334,33.19444444444444,23.958333333333332,53.333333333333336,20C73.47222222222223,16.041666666666668,84.44444444444446,-11.291666666666666,106.66666666666667,-9C128.88888888888889,-6.708333333333334,137.77777777777777,35.583333333333336,160,31C182.22222222222223,26.416666666666668,191.11111111111111,-34.333333333333336,213.33333333333334,-31C235.55555555555557,-27.666666666666668,244.44444444444446,41.791666666666664,266.6666666666667,47C288.8888888888889,52.208333333333336,297.77777777777777,-4.958333333333333,320,-6C342.22222222222223,-7.041666666666667,351.11111111111114,43.041666666666664,373.33333333333337,42C395.5555555555556,40.958333333333336,404.44444444444446,-8.708333333333334,426.6666666666667,-11C448.8888888888889,-13.291666666666666,457.77777777777777,27.875,480,31C502.22222222222223,34.125,511.11111111111114,0.25,533.3333333333334,4C555.5555555555557,7.75,564.4444444444446,47.958333333333336,586.6666666666667,49C608.8888888888889,50.041666666666664,617.7777777777778,5.666666666666667,640,9C662.2222222222222,12.333333333333332,671.1111111111111,67.5,693.3333333333334,65C715.5555555555557,62.5,724.4444444444446,-3.4166666666666665,746.6666666666667,-3C768.8888888888889,-2.5833333333333335,788.8888888888889,52.41666666666667,800,67" transform="matrix(1,0,0,1,0,1491)"></path><path d="M10,10C19.02777777777778,12.083333333333334,33.19444444444444,23.958333333333332,53.333333333333336,20C73.47222222222223,16.041666666666668,84.44444444444446,-11.291666666666666,106.66666666666667,-9C128.88888888888889,-6.708333333333334,137.77777777777777,35.583333333333336,160,31C182.22222222222223,26.416666666666668,191.11111111111111,-34.333333333333336,213.33333333333334,-31C235.55555555555557,-27.666666666666668,244.44444444444446,41.791666666666664,266.6666666666667,47C288.8888888888889,52.208333333333336,297.77777777777777,-4.958333333333333,320,-6C342.22222222222223,-7.041666666666667,351.11111111111114,43.041666666666664,373.33333333333337,42C395.5555555555556,40.958333333333336,404.44444444444446,-8.708333333333334,426.6666666666667,-11C448.8888888888889,-13.291666666666666,457.77777777777777,27.875,480,31C502.22222222222223,34.125,511.11111111111114,0.25,533.3333333333334,4C555.5555555555557,7.75,564.4444444444446,47.958333333333336,586.6666666666667,49C608.8888888888889,50.041666666666664,617.7777777777778,5.666666666666667,640,9C662.2222222222222,12.333333333333332,671.1111111111111,67.5,693.3333333333334,65C715.5555555555557,62.5,724.4444444444446,-3.4166666666666665,746.6666666666667,-3C768.8888888888889,-2.5833333333333335,788.8888888888889,52.41666666666667,800,67" transform="matrix(1,0,0,1,0,1420)"></path><path d="M10,10C19.02777777777778,12.083333333333334,33.19444444444444,23.958333333333332,53.333333333333336,20C73.47222222222223,16.041666666666668,84.44444444444446,-11.291666666666666,106.66666666666667,-9C128.88888888888889,-6.708333333333334,137.77777777777777,35.583333333333336,160,31C182.22222222222223,26.416666666666668,191.11111111111111,-34.333333333333336,213.33333333333334,-31C235.55555555555557,-27.666666666666668,244.44444444444446,41.791666666666664,266.6666666666667,47C288.8888888888889,52.208333333333336,297.77777777777777,-4.958333333333333,320,-6C342.22222222222223,-7.041666666666667,351.11111111111114,43.041666666666664,373.33333333333337,42C395.5555555555556,40.958333333333336,404.44444444444446,-8.708333333333334,426.6666666666667,-11C448.8888888888889,-13.291666666666666,457.77777777777777,27.875,480,31C502.22222222222223,34.125,511.11111111111114,0.25,533.3333333333334,4C555.5555555555557,7.75,564.4444444444446,47.958333333333336,586.6666666666667,49C608.8888888888889,50.041666666666664,617.7777777777778,5.666666666666667,640,9C662.2222222222222,12.333333333333332,671.1111111111111,67.5,693.3333333333334,65C715.5555555555557,62.5,724.4444444444446,-3.4166666666666665,746.6666666666667,-3C768.8888888888889,-2.5833333333333335,788.8888888888889,52.41666666666667,800,67" transform="matrix(1,0,0,1,0,1349)"></path><path d="M10,10C19.02777777777778,12.083333333333334,33.19444444444444,23.958333333333332,53.333333333333336,20C73.47222222222223,16.041666666666668,84.44444444444446,-11.291666666666666,106.66666666666667,-9C128.88888888888889,-6.708333333333334,137.77777777777777,35.583333333333336,160,31C182.22222222222223,26.416666666666668,191.11111111111111,-34.333333333333336,213.33333333333334,-31C235.55555555555557,-27.666666666666668,244.44444444444446,41.791666666666664,266.6666666666667,47C288.8888888888889,52.208333333333336,297.77777777777777,-4.958333333333333,320,-6C342.22222222222223,-7.041666666666667,351.11111111111114,43.041666666666664,373.33333333333337,42C395.5555555555556,40.958333333333336,404.44444444444446,-8.708333333333334,426.6666666666667,-11C448.8888888888889,-13.291666666666666,457.77777777777777,27.875,480,31C502.22222222222223,34.125,511.11111111111114,0.25,533.3333333333334,4C555.5555555555557,7.75,564.4444444444446,47.958333333333336,586.6666666666667,49C608.8888888888889,50.041666666666664,617.7777777777778,5.666666666666667,640,9C662.2222222222222,12.333333333333332,671.1111111111111,67.5,693.3333333333334,65C715.5555555555557,62.5,724.4444444444446,-3.4166666666666665,746.6666666666667,-3C768.8888888888889,-2.5833333333333335,788.8888888888889,52.41666666666667,800,67" transform="matrix(1,0,0,1,0,1278)"></path><path d="M10,10C19.02777777777778,12.083333333333334,33.19444444444444,23.958333333333332,53.333333333333336,20C73.47222222222223,16.041666666666668,84.44444444444446,-11.291666666666666,106.66666666666667,-9C128.88888888888889,-6.708333333333334,137.77777777777777,35.583333333333336,160,31C182.22222222222223,26.416666666666668,191.11111111111111,-34.333333333333336,213.33333333333334,-31C235.55555555555557,-27.666666666666668,244.44444444444446,41.791666666666664,266.6666666666667,47C288.8888888888889,52.208333333333336,297.77777777777777,-4.958333333333333,320,-6C342.22222222222223,-7.041666666666667,351.11111111111114,43.041666666666664,373.33333333333337,42C395.5555555555556,40.958333333333336,404.44444444444446,-8.708333333333334,426.6666666666667,-11C448.8888888888889,-13.291666666666666,457.77777777777777,27.875,480,31C502.22222222222223,34.125,511.11111111111114,0.25,533.3333333333334,4C555.5555555555557,7.75,564.4444444444446,47.958333333333336,586.6666666666667,49C608.8888888888889,50.041666666666664,617.7777777777778,5.666666666666667,640,9C662.2222222222222,12.333333333333332,671.1111111111111,67.5,693.3333333333334,65C715.5555555555557,62.5,724.4444444444446,-3.4166666666666665,746.6666666666667,-3C768.8888888888889,-2.5833333333333335,788.8888888888889,52.41666666666667,800,67" transform="matrix(1,0,0,1,0,1207)"></path><path d="M10,10C19.02777777777778,12.083333333333334,33.19444444444444,23.958333333333332,53.333333333333336,20C73.47222222222223,16.041666666666668,84.44444444444446,-11.291666666666666,106.66666666666667,-9C128.88888888888889,-6.708333333333334,137.77777777777777,35.583333333333336,160,31C182.22222222222223,26.416666666666668,191.11111111111111,-34.333333333333336,213.33333333333334,-31C235.55555555555557,-27.666666666666668,244.44444444444446,41.791666666666664,266.6666666666667,47C288.8888888888889,52.208333333333336,297.77777777777777,-4.958333333333333,320,-6C342.22222222222223,-7.041666666666667,351.11111111111114,43.041666666666664,373.33333333333337,42C395.5555555555556,40.958333333333336,404.44444444444446,-8.708333333333334,426.6666666666667,-11C448.8888888888889,-13.291666666666666,457.77777777777777,27.875,480,31C502.22222222222223,34.125,511.11111111111114,0.25,533.3333333333334,4C555.5555555555557,7.75,564.4444444444446,47.958333333333336,586.6666666666667,49C608.8888888888889,50.041666666666664,617.7777777777778,5.666666666666667,640,9C662.2222222222222,12.333333333333332,671.1111111111111,67.5,693.3333333333334,65C715.5555555555557,62.5,724.4444444444446,-3.4166666666666665,746.6666666666667,-3C768.8888888888889,-2.5833333333333335,788.8888888888889,52.41666666666667,800,67" transform="matrix(1,0,0,1,0,1136)"></path><path d="M10,10C19.02777777777778,12.083333333333334,33.19444444444444,23.958333333333332,53.333333333333336,20C73.47222222222223,16.041666666666668,84.44444444444446,-11.291666666666666,106.66666666666667,-9C128.88888888888889,-6.708333333333334,137.77777777777777,35.583333333333336,160,31C182.22222222222223,26.416666666666668,191.11111111111111,-34.333333333333336,213.33333333333334,-31C235.55555555555557,-27.666666666666668,244.44444444444446,41.791666666666664,266.6666666666667,47C288.8888888888889,52.208333333333336,297.77777777777777,-4.958333333333333,320,-6C342.22222222222223,-7.041666666666667,351.11111111111114,43.041666666666664,373.33333333333337,42C395.5555555555556,40.958333333333336,404.44444444444446,-8.708333333333334,426.6666666666667,-11C448.8888888888889,-13.291666666666666,457.77777777777777,27.875,480,31C502.22222222222223,34.125,511.11111111111114,0.25,533.3333333333334,4C555.5555555555557,7.75,564.4444444444446,47.958333333333336,586.6666666666667,49C608.8888888888889,50.041666666666664,617.7777777777778,5.666666666666667,640,9C662.2222222222222,12.333333333333332,671.1111111111111,67.5,693.3333333333334,65C715.5555555555557,62.5,724.4444444444446,-3.4166666666666665,746.6666666666667,-3C768.8888888888889,-2.5833333333333335,788.8888888888889,52.41666666666667,800,67" transform="matrix(1,0,0,1,0,1065)"></path><path d="M10,10C19.02777777777778,12.083333333333334,33.19444444444444,23.958333333333332,53.333333333333336,20C73.47222222222223,16.041666666666668,84.44444444444446,-11.291666666666666,106.66666666666667,-9C128.88888888888889,-6.708333333333334,137.77777777777777,35.583333333333336,160,31C182.22222222222223,26.416666666666668,191.11111111111111,-34.333333333333336,213.33333333333334,-31C235.55555555555557,-27.666666666666668,244.44444444444446,41.791666666666664,266.6666666666667,47C288.8888888888889,52.208333333333336,297.77777777777777,-4.958333333333333,320,-6C342.22222222222223,-7.041666666666667,351.11111111111114,43.041666666666664,373.33333333333337,42C395.5555555555556,40.958333333333336,404.44444444444446,-8.708333333333334,426.6666666666667,-11C448.8888888888889,-13.291666666666666,457.77777777777777,27.875,480,31C502.22222222222223,34.125,511.11111111111114,0.25,533.3333333333334,4C555.5555555555557,7.75,564.4444444444446,47.958333333333336,586.6666666666667,49C608.8888888888889,50.041666666666664,617.7777777777778,5.666666666666667,640,9C662.2222222222222,12.333333333333332,671.1111111111111,67.5,693.3333333333334,65C715.5555555555557,62.5,724.4444444444446,-3.4166666666666665,746.6666666666667,-3C768.8888888888889,-2.5833333333333335,788.8888888888889,52.41666666666667,800,67" transform="matrix(1,0,0,1,0,994)"></path><path d="M10,10C19.02777777777778,12.083333333333334,33.19444444444444,23.958333333333332,53.333333333333336,20C73.47222222222223,16.041666666666668,84.44444444444446,-11.291666666666666,106.66666666666667,-9C128.88888888888889,-6.708333333333334,137.77777777777777,35.583333333333336,160,31C182.22222222222223,26.416666666666668,191.11111111111111,-34.333333333333336,213.33333333333334,-31C235.55555555555557,-27.666666666666668,244.44444444444446,41.791666666666664,266.6666666666667,47C288.8888888888889,52.208333333333336,297.77777777777777,-4.958333333333333,320,-6C342.22222222222223,-7.041666666666667,351.11111111111114,43.041666666666664,373.33333333333337,42C395.5555555555556,40.958333333333336,404.44444444444446,-8.708333333333334,426.6666666666667,-11C448.8888888888889,-13.291666666666666,457.77777777777777,27.875,480,31C502.22222222222223,34.125,511.11111111111114,0.25,533.3333333333334,4C555.5555555555557,7.75,564.4444444444446,47.958333333333336,586.6666666666667,49C608.8888888888889,50.041666666666664,617.7777777777778,5.666666666666667,640,9C662.2222222222222,12.333333333333332,671.1111111111111,67.5,693.3333333333334,65C715.5555555555557,62.5,724.4444444444446,-3.4166666666666665,746.6666666666667,-3C768.8888888888889,-2.5833333333333335,788.8888888888889,52.41666666666667,800,67" transform="matrix(1,0,0,1,0,923)"></path><path d="M10,10C19.02777777777778,12.083333333333334,33.19444444444444,23.958333333333332,53.333333333333336,20C73.47222222222223,16.041666666666668,84.44444444444446,-11.291666666666666,106.66666666666667,-9C128.88888888888889,-6.708333333333334,137.77777777777777,35.583333333333336,160,31C182.22222222222223,26.416666666666668,191.11111111111111,-34.333333333333336,213.33333333333334,-31C235.55555555555557,-27.666666666666668,244.44444444444446,41.791666666666664,266.6666666666667,47C288.8888888888889,52.208333333333336,297.77777777777777,-4.958333333333333,320,-6C342.22222222222223,-7.041666666666667,351.11111111111114,43.041666666666664,373.33333333333337,42C395.5555555555556,40.958333333333336,404.44444444444446,-8.708333333333334,426.6666666666667,-11C448.8888888888889,-13.291666666666666,457.77777777777777,27.875,480,31C502.22222222222223,34.125,511.11111111111114,0.25,533.3333333333334,4C555.5555555555557,7.75,564.4444444444446,47.958333333333336,586.6666666666667,49C608.8888888888889,50.041666666666664,617.7777777777778,5.666666666666667,640,9C662.2222222222222,12.333333333333332,671.1111111111111,67.5,693.3333333333334,65C715.5555555555557,62.5,724.4444444444446,-3.4166666666666665,746.6666666666667,-3C768.8888888888889,-2.5833333333333335,788.8888888888889,52.41666666666667,800,67" transform="matrix(1,0,0,1,0,852)"></path><path d="M10,10C19.02777777777778,12.083333333333334,33.19444444444444,23.958333333333332,53.333333333333336,20C73.47222222222223,16.041666666666668,84.44444444444446,-11.291666666666666,106.66666666666667,-9C128.88888888888889,-6.708333333333334,137.77777777777777,35.583333333333336,160,31C182.22222222222223,26.416666666666668,191.11111111111111,-34.333333333333336,213.33333333333334,-31C235.55555555555557,-27.666666666666668,244.44444444444446,41.791666666666664,266.6666666666667,47C288.8888888888889,52.208333333333336,297.77777777777777,-4.958333333333333,320,-6C342.22222222222223,-7.041666666666667,351.11111111111114,43.041666666666664,373.33333333333337,42C395.5555555555556,40.958333333333336,404.44444444444446,-8.708333333333334,426.6666666666667,-11C448.8888888888889,-13.291666666666666,457.77777777777777,27.875,480,31C502.22222222222223,34.125,511.11111111111114,0.25,533.3333333333334,4C555.5555555555557,7.75,564.4444444444446,47.958333333333336,586.6666666666667,49C608.8888888888889,50.041666666666664,617.7777777777778,5.666666666666667,640,9C662.2222222222222,12.333333333333332,671.1111111111111,67.5,693.3333333333334,65C715.5555555555557,62.5,724.4444444444446,-3.4166666666666665,746.6666666666667,-3C768.8888888888889,-2.5833333333333335,788.8888888888889,52.41666666666667,800,67" transform="matrix(1,0,0,1,0,781)"></path><path d="M10,10C19.02777777777778,12.083333333333334,33.19444444444444,23.958333333333332,53.333333333333336,20C73.47222222222223,16.041666666666668,84.44444444444446,-11.291666666666666,106.66666666666667,-9C128.88888888888889,-6.708333333333334,137.77777777777777,35.583333333333336,160,31C182.22222222222223,26.416666666666668,191.11111111111111,-34.333333333333336,213.33333333333334,-31C235.55555555555557,-27.666666666666668,244.44444444444446,41.791666666666664,266.6666666666667,47C288.8888888888889,52.208333333333336,297.77777777777777,-4.958333333333333,320,-6C342.22222222222223,-7.041666666666667,351.11111111111114,43.041666666666664,373.33333333333337,42C395.5555555555556,40.958333333333336,404.44444444444446,-8.708333333333334,426.6666666666667,-11C448.8888888888889,-13.291666666666666,457.77777777777777,27.875,480,31C502.22222222222223,34.125,511.11111111111114,0.25,533.3333333333334,4C555.5555555555557,7.75,564.4444444444446,47.958333333333336,586.6666666666667,49C608.8888888888889,50.041666666666664,617.7777777777778,5.666666666666667,640,9C662.2222222222222,12.333333333333332,671.1111111111111,67.5,693.3333333333334,65C715.5555555555557,62.5,724.4444444444446,-3.4166666666666665,746.6666666666667,-3C768.8888888888889,-2.5833333333333335,788.8888888888889,52.41666666666667,800,67" transform="matrix(1,0,0,1,0,710)"></path><path d="M10,10C19.02777777777778,12.083333333333334,33.19444444444444,23.958333333333332,53.333333333333336,20C73.47222222222223,16.041666666666668,84.44444444444446,-11.291666666666666,106.66666666666667,-9C128.88888888888889,-6.708333333333334,137.77777777777777,35.583333333333336,160,31C182.22222222222223,26.416666666666668,191.11111111111111,-34.333333333333336,213.33333333333334,-31C235.55555555555557,-27.666666666666668,244.44444444444446,41.791666666666664,266.6666666666667,47C288.8888888888889,52.208333333333336,297.77777777777777,-4.958333333333333,320,-6C342.22222222222223,-7.041666666666667,351.11111111111114,43.041666666666664,373.33333333333337,42C395.5555555555556,40.958333333333336,404.44444444444446,-8.708333333333334,426.6666666666667,-11C448.8888888888889,-13.291666666666666,457.77777777777777,27.875,480,31C502.22222222222223,34.125,511.11111111111114,0.25,533.3333333333334,4C555.5555555555557,7.75,564.4444444444446,47.958333333333336,586.6666666666667,49C608.8888888888889,50.041666666666664,617.7777777777778,5.666666666666667,640,9C662.2222222222222,12.333333333333332,671.1111111111111,67.5,693.3333333333334,65C715.5555555555557,62.5,724.4444444444446,-3.4166666666666665,746.6666666666667,-3C768.8888888888889,-2.5833333333333335,788.8888888888889,52.41666666666667,800,67" transform="matrix(1,0,0,1,0,639)"></path><path d="M10,10C19.02777777777778,12.083333333333334,33.19444444444444,23.958333333333332,53.333333333333336,20C73.47222222222223,16.041666666666668,84.44444444444446,-11.291666666666666,106.66666666666667,-9C128.88888888888889,-6.708333333333334,137.77777777777777,35.583333333333336,160,31C182.22222222222223,26.416666666666668,191.11111111111111,-34.333333333333336,213.33333333333334,-31C235.55555555555557,-27.666666666666668,244.44444444444446,41.791666666666664,266.6666666666667,47C288.8888888888889,52.208333333333336,297.77777777777777,-4.958333333333333,320,-6C342.22222222222223,-7.041666666666667,351.11111111111114,43.041666666666664,373.33333333333337,42C395.5555555555556,40.958333333333336,404.44444444444446,-8.708333333333334,426.6666666666667,-11C448.8888888888889,-13.291666666666666,457.77777777777777,27.875,480,31C502.22222222222223,34.125,511.11111111111114,0.25,533.3333333333334,4C555.5555555555557,7.75,564.4444444444446,47.958333333333336,586.6666666666667,49C608.8888888888889,50.041666666666664,617.7777777777778,5.666666666666667,640,9C662.2222222222222,12.333333333333332,671.1111111111111,67.5,693.3333333333334,65C715.5555555555557,62.5,724.4444444444446,-3.4166666666666665,746.6666666666667,-3C768.8888888888889,-2.5833333333333335,788.8888888888889,52.41666666666667,800,67" transform="matrix(1,0,0,1,0,568)"></path><path d="M10,10C19.02777777777778,12.083333333333334,33.19444444444444,23.958333333333332,53.333333333333336,20C73.47222222222223,16.041666666666668,84.44444444444446,-11.291666666666666,106.66666666666667,-9C128.88888888888889,-6.708333333333334,137.77777777777777,35.583333333333336,160,31C182.22222222222223,26.416666666666668,191.11111111111111,-34.333333333333336,213.33333333333334,-31C235.55555555555557,-27.666666666666668,244.44444444444446,41.791666666666664,266.6666666666667,47C288.8888888888889,52.208333333333336,297.77777777777777,-4.958333333333333,320,-6C342.22222222222223,-7.041666666666667,351.11111111111114,43.041666666666664,373.33333333333337,42C395.5555555555556,40.958333333333336,404.44444444444446,-8.708333333333334,426.6666666666667,-11C448.8888888888889,-13.291666666666666,457.77777777777777,27.875,480,31C502.22222222222223,34.125,511.11111111111114,0.25,533.3333333333334,4C555.5555555555557,7.75,564.4444444444446,47.958333333333336,586.6666666666667,49C608.8888888888889,50.041666666666664,617.7777777777778,5.666666666666667,640,9C662.2222222222222,12.333333333333332,671.1111111111111,67.5,693.3333333333334,65C715.5555555555557,62.5,724.4444444444446,-3.4166666666666665,746.6666666666667,-3C768.8888888888889,-2.5833333333333335,788.8888888888889,52.41666666666667,800,67" transform="matrix(1,0,0,1,0,497)"></path><path d="M10,10C19.02777777777778,12.083333333333334,33.19444444444444,23.958333333333332,53.333333333333336,20C73.47222222222223,16.041666666666668,84.44444444444446,-11.291666666666666,106.66666666666667,-9C128.88888888888889,-6.708333333333334,137.77777777777777,35.583333333333336,160,31C182.22222222222223,26.416666666666668,191.11111111111111,-34.333333333333336,213.33333333333334,-31C235.55555555555557,-27.666666666666668,244.44444444444446,41.791666666666664,266.6666666666667,47C288.8888888888889,52.208333333333336,297.77777777777777,-4.958333333333333,320,-6C342.22222222222223,-7.041666666666667,351.11111111111114,43.041666666666664,373.33333333333337,42C395.5555555555556,40.958333333333336,404.44444444444446,-8.708333333333334,426.6666666666667,-11C448.8888888888889,-13.291666666666666,457.77777777777777,27.875,480,31C502.22222222222223,34.125,511.11111111111114,0.25,533.3333333333334,4C555.5555555555557,7.75,564.4444444444446,47.958333333333336,586.6666666666667,49C608.8888888888889,50.041666666666664,617.7777777777778,5.666666666666667,640,9C662.2222222222222,12.333333333333332,671.1111111111111,67.5,693.3333333333334,65C715.5555555555557,62.5,724.4444444444446,-3.4166666666666665,746.6666666666667,-3C768.8888888888889,-2.5833333333333335,788.8888888888889,52.41666666666667,800,67" transform="matrix(1,0,0,1,0,426)"></path><path d="M10,10C19.02777777777778,12.083333333333334,33.19444444444444,23.958333333333332,53.333333333333336,20C73.47222222222223,16.041666666666668,84.44444444444446,-11.291666666666666,106.66666666666667,-9C128.88888888888889,-6.708333333333334,137.77777777777777,35.583333333333336,160,31C182.22222222222223,26.416666666666668,191.11111111111111,-34.333333333333336,213.33333333333334,-31C235.55555555555557,-27.666666666666668,244.44444444444446,41.791666666666664,266.6666666666667,47C288.8888888888889,52.208333333333336,297.77777777777777,-4.958333333333333,320,-6C342.22222222222223,-7.041666666666667,351.11111111111114,43.041666666666664,373.33333333333337,42C395.5555555555556,40.958333333333336,404.44444444444446,-8.708333333333334,426.6666666666667,-11C448.8888888888889,-13.291666666666666,457.77777777777777,27.875,480,31C502.22222222222223,34.125,511.11111111111114,0.25,533.3333333333334,4C555.5555555555557,7.75,564.4444444444446,47.958333333333336,586.6666666666667,49C608.8888888888889,50.041666666666664,617.7777777777778,5.666666666666667,640,9C662.2222222222222,12.333333333333332,671.1111111111111,67.5,693.3333333333334,65C715.5555555555557,62.5,724.4444444444446,-3.4166666666666665,746.6666666666667,-3C768.8888888888889,-2.5833333333333335,788.8888888888889,52.41666666666667,800,67" transform="matrix(1,0,0,1,0,355)"></path><path d="M10,10C19.02777777777778,12.083333333333334,33.19444444444444,23.958333333333332,53.333333333333336,20C73.47222222222223,16.041666666666668,84.44444444444446,-11.291666666666666,106.66666666666667,-9C128.88888888888889,-6.708333333333334,137.77777777777777,35.583333333333336,160,31C182.22222222222223,26.416666666666668,191.11111111111111,-34.333333333333336,213.33333333333334,-31C235.55555555555557,-27.666666666666668,244.44444444444446,41.791666666666664,266.6666666666667,47C288.8888888888889,52.208333333333336,297.77777777777777,-4.958333333333333,320,-6C342.22222222222223,-7.041666666666667,351.11111111111114,43.041666666666664,373.33333333333337,42C395.5555555555556,40.958333333333336,404.44444444444446,-8.708333333333334,426.6666666666667,-11C448.8888888888889,-13.291666666666666,457.77777777777777,27.875,480,31C502.22222222222223,34.125,511.11111111111114,0.25,533.3333333333334,4C555.5555555555557,7.75,564.4444444444446,47.958333333333336,586.6666666666667,49C608.8888888888889,50.041666666666664,617.7777777777778,5.666666666666667,640,9C662.2222222222222,12.333333333333332,671.1111111111111,67.5,693.3333333333334,65C715.5555555555557,62.5,724.4444444444446,-3.4166666666666665,746.6666666666667,-3C768.8888888888889,-2.5833333333333335,788.8888888888889,52.41666666666667,800,67" transform="matrix(1,0,0,1,0,284)"></path><path d="M10,10C19.02777777777778,12.083333333333334,33.19444444444444,23.958333333333332,53.333333333333336,20C73.47222222222223,16.041666666666668,84.44444444444446,-11.291666666666666,106.66666666666667,-9C128.88888888888889,-6.708333333333334,137.77777777777777,35.583333333333336,160,31C182.22222222222223,26.416666666666668,191.11111111111111,-34.333333333333336,213.33333333333334,-31C235.55555555555557,-27.666666666666668,244.44444444444446,41.791666666666664,266.6666666666667,47C288.8888888888889,52.208333333333336,297.77777777777777,-4.958333333333333,320,-6C342.22222222222223,-7.041666666666667,351.11111111111114,43.041666666666664,373.33333333333337,42C395.5555555555556,40.958333333333336,404.44444444444446,-8.708333333333334,426.6666666666667,-11C448.8888888888889,-13.291666666666666,457.77777777777777,27.875,480,31C502.22222222222223,34.125,511.11111111111114,0.25,533.3333333333334,4C555.5555555555557,7.75,564.4444444444446,47.958333333333336,586.6666666666667,49C608.8888888888889,50.041666666666664,617.7777777777778,5.666666666666667,640,9C662.2222222222222,12.333333333333332,671.1111111111111,67.5,693.3333333333334,65C715.5555555555557,62.5,724.4444444444446,-3.4166666666666665,746.6666666666667,-3C768.8888888888889,-2.5833333333333335,788.8888888888889,52.41666666666667,800,67" transform="matrix(1,0,0,1,0,213)"></path><path d="M10,10C19.02777777777778,12.083333333333334,33.19444444444444,23.958333333333332,53.333333333333336,20C73.47222222222223,16.041666666666668,84.44444444444446,-11.291666666666666,106.66666666666667,-9C128.88888888888889,-6.708333333333334,137.77777777777777,35.583333333333336,160,31C182.22222222222223,26.416666666666668,191.11111111111111,-34.333333333333336,213.33333333333334,-31C235.55555555555557,-27.666666666666668,244.44444444444446,41.791666666666664,266.6666666666667,47C288.8888888888889,52.208333333333336,297.77777777777777,-4.958333333333333,320,-6C342.22222222222223,-7.041666666666667,351.11111111111114,43.041666666666664,373.33333333333337,42C395.5555555555556,40.958333333333336,404.44444444444446,-8.708333333333334,426.6666666666667,-11C448.8888888888889,-13.291666666666666,457.77777777777777,27.875,480,31C502.22222222222223,34.125,511.11111111111114,0.25,533.3333333333334,4C555.5555555555557,7.75,564.4444444444446,47.958333333333336,586.6666666666667,49C608.8888888888889,50.041666666666664,617.7777777777778,5.666666666666667,640,9C662.2222222222222,12.333333333333332,671.1111111111111,67.5,693.3333333333334,65C715.5555555555557,62.5,724.4444444444446,-3.4166666666666665,746.6666666666667,-3C768.8888888888889,-2.5833333333333335,788.8888888888889,52.41666666666667,800,67" transform="matrix(1,0,0,1,0,142)"></path><path d="M10,10C19.02777777777778,12.083333333333334,33.19444444444444,23.958333333333332,53.333333333333336,20C73.47222222222223,16.041666666666668,84.44444444444446,-11.291666666666666,106.66666666666667,-9C128.88888888888889,-6.708333333333334,137.77777777777777,35.583333333333336,160,31C182.22222222222223,26.416666666666668,191.11111111111111,-34.333333333333336,213.33333333333334,-31C235.55555555555557,-27.666666666666668,244.44444444444446,41.791666666666664,266.6666666666667,47C288.8888888888889,52.208333333333336,297.77777777777777,-4.958333333333333,320,-6C342.22222222222223,-7.041666666666667,351.11111111111114,43.041666666666664,373.33333333333337,42C395.5555555555556,40.958333333333336,404.44444444444446,-8.708333333333334,426.6666666666667,-11C448.8888888888889,-13.291666666666666,457.77777777777777,27.875,480,31C502.22222222222223,34.125,511.11111111111114,0.25,533.3333333333334,4C555.5555555555557,7.75,564.4444444444446,47.958333333333336,586.6666666666667,49C608.8888888888889,50.041666666666664,617.7777777777778,5.666666666666667,640,9C662.2222222222222,12.333333333333332,671.1111111111111,67.5,693.3333333333334,65C715.5555555555557,62.5,724.4444444444446,-3.4166666666666665,746.6666666666667,-3C768.8888888888889,-2.5833333333333335,788.8888888888889,52.41666666666667,800,67" transform="matrix(1,0,0,1,0,71)"></path></g></svg>