<svg id="a445ddd9-8f9d-4965-9e92-3cae674fb611" data-name="Capa 1" xmlns="http://www.w3.org/2000/svg" viewBox="0 0 47.19 47.1">
  <defs>
    <style>
      .e707f1ec-096d-4a52-9d43-827002939e37 {
        fill: #f3e1c7;
      }

      .fa551944-27ac-42f1-bf9f-50d4ebb44b29 {
        fill: #754c24;
        opacity: 0.11;
      }

      .b8c2a813-ae58-4ff4-83f8-b6bee675a553 {
        fill: #facd66;
      }

      .b8c2a813-ae58-4ff4-83f8-b6bee675a553, .bc57617c-12ec-42c6-a6d6-98834d08387c, .e25da959-f2d0-484f-9f9c-8bc485e443ef {
        fill-rule: evenodd;
      }

      .bc57617c-12ec-42c6-a6d6-98834d08387c {
        fill: #8c281f;
      }

      .e25da959-f2d0-484f-9f9c-8bc485e443ef {
        fill: #d2b50f;
      }
    </style>
  </defs>
  <title>logo</title>
  <g>
    <ellipse class="e707f1ec-096d-4a52-9d43-827002939e37" cx="23.59" cy="23.55" rx="23.59" ry="23.55"/>
    <ellipse class="fa551944-27ac-42f1-bf9f-50d4ebb44b29" cx="23.54" cy="23.55" rx="10.09" ry="10.13"/>
    <path class="b8c2a813-ae58-4ff4-83f8-b6bee675a553" d="M27.19,23.59c.74-1,1.14-.78,1.5-1.83.94-2.7-1.38-1.47-2.31-1-1.37.67-6.17,5.09-6.42,5.85C19.56,27.81,25.42,26.05,27.19,23.59Z" transform="translate(-0.46 -0.54)"/>
    <path class="bc57617c-12ec-42c6-a6d6-98834d08387c" d="M31.47,16.47c.2.64,1.92-.73,2.61-.15,1,.85,1.13,1,1.61.53,1.59-1.52.21-1.9,3.47-3.45,1.29-.61-2.09-1.77-3.32-1.65C33.87,11.93,30.76,14.19,31.47,16.47Z" transform="translate(-0.46 -0.54)"/>
    <path d="M38.57,36.24h-15a2.4,2.4,0,0,1-.6,0,6.85,6.85,0,0,1-.82-.31,2.62,2.62,0,0,1,.79-.26c1.28,0,2.56,0,3.84,0h.9a4.2,4.2,0,0,0-.62-.43C24.74,34.08,22.37,33,20,31.83a1.25,1.25,0,0,0-1.4.18c-1.32.94-2.67,1.84-4.23,2.9L15.44,32a7.62,7.62,0,0,0-1,.36c-2.93,1.51-5.86,3-8.79,4.56a11.4,11.4,0,0,1-1.57.67.69.69,0,0,1-.57-.16c-.07-.06,0-.39.11-.52a11.63,11.63,0,0,1,1.26-1.27q7.66-6.29,15.35-12.54a7.94,7.94,0,0,0,1.18-1.21A40.77,40.77,0,0,1,32.1,12.17c2.06-1.26,4.24-2,6.66-1.38,1.7.47,3.22,1.5,5,1.62a1,1,0,0,1,.38.18c.12.07.23.16.41.29-1.34,1-2.66,1.82-4.34,1.68a1.22,1.22,0,0,1-.78-.62c-.07-.13.2-.54.41-.7A7.44,7.44,0,0,1,41,12.61a6,6,0,0,0-6.34-1.1A28.46,28.46,0,0,0,30.29,14a30.58,30.58,0,0,0-6.95,6.68L25,19.3a4.75,4.75,0,0,1,4.4-1c1.52.38,2,1.35,1.45,2.82a10.82,10.82,0,0,1-3.35,4.25c-2.24,1.8-4.57,3.49-6.86,5.23l-.7.51c2.65,1.32,5.29,2.57,7.87,3.94a4.59,4.59,0,0,0,2.69.59,1.74,1.74,0,0,0,.34-.12c-.94-.59-1.8-1.12-2.64-1.68-.15-.11-.21-.36-.32-.55.2,0,.46,0,.58.13C31,35.6,33.91,36,37,35.65a5.26,5.26,0,0,1,1.19,0c.17,0,.32.24.47.36Zm-22-5.37c.73,0,1.37,0,2,0a2.12,2.12,0,0,0,1.08-.24c1.95-1.38,3.93-2.73,5.78-4.23a39.75,39.75,0,0,0,3.86-3.71,6.22,6.22,0,0,0,1.17-2.05,1.21,1.21,0,0,0-.92-1.77,3.5,3.5,0,0,0-3.14.19,32.93,32.93,0,0,0-5.24,4.2A30.21,30.21,0,0,0,16.58,30.87ZM4.36,36.67l.19.27,1.55-.79c3.11-1.58,6.24-3.14,9.34-4.74a1.75,1.75,0,0,0,.64-.73c1-1.78,2-3.57,3-5.36.13-.25.3-.48.45-.72l-.18-.15ZM43.48,12.89a2.49,2.49,0,0,0-3.29,1A3.78,3.78,0,0,0,43.48,12.89Zm-28,20.63,3-2.05C16.8,31.14,16.12,31.59,15.51,33.52Z" transform="translate(-0.46 -0.54)"/>
    <path d="M36.85,13.82c-.32.2-.67.59-1,.54s-.53-.5-.8-.77c.28-.27.55-.71.85-.74s.61.39.91.61Z" transform="translate(-0.46 -0.54)"/>
    <path class="e25da959-f2d0-484f-9f9c-8bc485e443ef" d="M26.92,24.22c.8-1.13,1.07-1,1.57-2,1.31-2.73-.79-1.09-1.62-.48a53.38,53.38,0,0,0-6.3,6.81C20,29.74,25,26.88,26.92,24.22Z" transform="translate(-0.46 -0.54)"/>
  </g>
  <ellipse class="fa551944-27ac-42f1-bf9f-50d4ebb44b29" cx="23.97" cy="22.98" rx="4.8" ry="4.76"/>
</svg>
