<?xml version="1.0" encoding="UTF-8"?>
<svg xmlns="http://www.w3.org/2000/svg" viewBox="0 0 47.21 46.93">
  <defs>
    <style>
      .cls-1 {
        fill: #8c281f;
      }

      .cls-1, .cls-2, .cls-3 {
        fill-rule: evenodd;
      }

      .cls-2 {
        fill: #facd66;
      }

      .cls-3 {
        fill: #d2b50f;
      }

      .cls-4 {
        fill: #754c24;
        opacity: .11;
      }

      .cls-5 {
        fill: #f3e1c7;
      }
    </style>
  </defs>
  <g id="Capa_2" data-name="Capa 2">
    <ellipse class="cls-5" cx="24.26" cy="22.91" rx="22.95" ry="22.91"/>
    <ellipse class="cls-4" cx="24.21" cy="23" rx="9.82" ry="9.86"/>
    <ellipse class="cls-4" cx="24.62" cy="22.45" rx="4.67" ry="4.63"/>
  </g>
  <g id="Capa_3" data-name="Capa 3">
    <path class="cls-1" d="m24.35,16.84c-.04.53,1.65.03,1.99.66.5.94.54,1.08,1.04.88,1.63-.66.73-1.35,3.61-1.53,1.14-.07-1.03-1.94-1.98-2.22-1.52-.45-4.5.3-4.66,2.21Z"/>
    <g>
      <path d="m38.48,41.7c-.68-6.73-1.55-14.33-6.4-19.45-.35-.36-.71-.6-1.09-.95-.35-.71-.28-1.55.05-2.22,1.23-.94,2.86-1.03,4.29-.64,0,0-.12.2-.12.2-.87-.99-1.91-1.89-3.14-2.42,1.4.5,2.59,1.48,3.61,2.55,0,0-.41-.09-.41-.09-1.33-.31-2.91-.17-3.97.7,0,0,.05-.08.05-.08-.1.3-.16.61-.17.92-.02.28.08.7.16.84.33.26.75.59,1.04.87,5.02,5.15,5.87,12.91,6.09,19.78h0Z"/>
      <path d="m25.38,25.4c.79,2.15,2.33,3.94,3.77,5.68,4.48,5.13,9.94,9.7,16.49,11.84-7.88-1.78-17.43-9.94-20.26-17.53h0Z"/>
      <path d="m32.07,16.21c-4.83-6.47-11.63-1.05-12.56,5.28-1.67,3.03-.52,6.91,1.1,9.78,1.69,3.05,4.49,5.35,7.47,7.17-3.1-1.66-6.02-3.88-7.82-6.97-1.77-2.85-2.91-7.48-1.19-10.16.95-6.55,8.37-12.01,13-5.11h0Z"/>
      <path d="m28.08,38.44c3.28,1.25,6.3,2.94,9.53,4.33-3.44-.73-6.57-2.48-9.53-4.33h0Z"/>
      <path d="m28.08,38.44c-1.22.76-2.61,1.11-3.84,1.83.78-1.26,2.43-1.74,3.84-1.83h0Z"/>
      <path d="m31.73,46.75c-1.27-.7-2.3-1.63-3.11-2.83,1.26.68,2.31,1.65,3.11,2.83h0Z"/>
      <path d="m13.2,33.81c-1.99-1.65-3.89-3.46-6.08-4.82-2.2-1.36-4.58-2.43-6.9-3.58,5.06,1.47,9.65,4.3,12.99,8.4h0Z"/>
      <path d="m13.2,33.81c2.79.56,5.4,1.97,7.53,3.86-2.53-1.32-4.95-2.64-7.53-3.86h0Z"/>
      <path d="m13.2,33.81c-.62.24-1.21.15-1.72-.28.62-.25,1.21-.15,1.72.28h0Z"/>
      <path d="m20.72,37.66c-2.24-.25-4.75-.59-6.84-.92-4.38-.14-9.07,0-13.09-1.95-.2-.12-.43-.22-.58-.4.17.16.4.23.62.33,4.1,1.54,8.7,1.34,13.06,1.59,2.29.4,4.57.86,6.84,1.36h0Z"/>
      <path d="m20.72,37.66c1.36.59,2.56,1.48,3.52,2.61-1.38-.6-2.54-1.47-3.52-2.61h0Z"/>
      <path d="m24.24,40.28c1.67.94,3.14,2.17,4.37,3.63-1.68-.95-3.13-2.16-4.37-3.63h0Z"/>
      <path d="m32.29,40.54c-1.18,1.23-2.51,2.13-3.67,3.37.57-1.62,2.13-2.74,3.67-3.37h0Z"/>
      <path d="m27.52,16.13c-.2.18-.37.49-.24.47.11.07.51.22.68.18.07-.06,0-.43-.06-.48,0,0-.37-.18-.37-.18h0Zm0,0c.12-.04.27-.04.42-.06.39.14.55.53.44.91-.29.57-1.12.26-1.42-.17-.2-.43.24-.67.56-.68h0Z"/>
    </g>
    <g>
      <path d="m27.52,16.13c-.34.15-.81.54,0,.83,1.01.37.66-.71.41-.77-.2-.05-.36-.06-.41-.06Z"/>
      <path d="m27.52,16.13c-.2.18-.37.49-.24.47.11.07.51.22.68.18.07-.06,0-.43-.06-.48,0,0-.37-.18-.37-.18h0Zm0,0c.12-.04.27-.04.42-.06.39.14.55.53.44.91-.29.57-1.12.26-1.42-.17-.2-.43.24-.67.56-.68h0Z"/>
    </g>
    <path class="cls-2" d="m33.5,27.19c-.72-1.05-.35-1.34-1.21-2.04-2.23-1.81-1.86.8-1.75,1.83.16,1.51,2.69,7.53,3.32,8.02,1.01.79,1.35-5.31-.36-7.81Z"/>
    <path class="cls-3" d="m33.76,27.19c-.78-1.14-.55-1.34-1.37-2.17-2.12-2.16-1.3.37-1,1.36.44,1.46,3.66,7.65,4.25,8.24.95.95-.03-4.73-1.88-7.44Z"/>
  </g>
</svg>