<?xml version="1.0" standalone="no"?>
<!DOCTYPE svg PUBLIC "-//W3C//DTD SVG 20010904//EN"
 "http://www.w3.org/TR/2001/REC-SVG-20010904/DTD/svg10.dtd">
<svg version="1.0" xmlns="http://www.w3.org/2000/svg"
 width="989.000000pt" height="472.000000pt" viewBox="0 0 989.000000 472.000000"
 preserveAspectRatio="xMidYMid meet">

<g transform="translate(0.000000,472.000000) scale(0.100000,-0.100000)"
fill="#000000" stroke="none">
<path d="M0 2360 l0 -2360 4945 0 4945 0 0 2360 0 2360 -4945 0 -4945 0 0
-2360z m2548 2059 c734 -79 1367 -512 1689 -1154 72 -143 117 -260 161 -425
l36 -135 4 -345 c4 -396 -2 -443 -84 -690 -105 -318 -274 -590 -511 -827
l-104 -104 -38 23 c-87 53 -82 42 -92 168 -59 719 -244 1203 -576 1509 l-78
72 0 66 c0 76 11 89 103 123 62 24 161 30 252 17 l54 -8 -19 22 c-30 33 -162
137 -198 155 -38 19 -30 12 43 -44 31 -22 67 -53 80 -68 l25 -27 -56 7 c-109
14 -268 -32 -304 -88 -21 -31 -30 -93 -21 -140 5 -28 30 -59 109 -138 221
-221 370 -513 472 -920 46 -187 116 -620 102 -634 -6 -6 -180 121 -307 224
-239 195 -623 609 -763 822 -65 100 -69 101 -17 5 192 -358 567 -752 975
-1027 109 -74 121 -84 126 -117 l6 -36 2 33 1 33 40 -23 c22 -13 40 -26 40
-30 0 -8 -138 -114 -197 -151 -50 -32 -20 -41 -313 98 -215 102 -492 225 -508
225 -10 0 93 -62 225 -135 l111 -61 -46 -25 c-54 -28 -145 -99 -182 -142 -29
-34 -70 -98 -70 -110 0 -4 66 50 146 120 80 71 152 132 159 137 8 6 50 -8 126
-41 63 -28 152 -63 198 -78 99 -33 101 -29 -49 -104 -113 -57 -246 -111 -351
-141 l-77 -22 -53 40 c-107 79 -119 77 -47 -9 l38 -47 -87 -16 c-464 -83 -924
-18 -1343 190 -162 81 -271 150 -406 260 -102 82 -245 228 -319 324 l-48 63
69 -7 c151 -15 346 -25 476 -26 99 0 206 -9 385 -34 292 -40 380 -50 373 -43
-3 3 -122 29 -265 57 -257 52 -263 52 -560 66 -296 13 -404 20 -477 30 -33 5
-42 14 -83 77 -70 109 -169 318 -213 452 -43 127 -86 312 -80 341 2 14 37 0
198 -83 232 -118 348 -189 478 -291 83 -64 332 -271 332 -276 0 0 -25 1 -55 2
-64 4 -74 -11 -20 -34 38 -16 83 -18 103 -5 10 6 -4 28 -56 88 -216 244 -543
468 -883 603 l-107 42 -6 51 c-15 137 -17 244 -7 372 56 691 425 1287 1022
1651 377 230 876 341 1317 293z m3422 -1804 l0 -485 45 0 c38 0 45 -3 45 -20
0 -19 -7 -20 -150 -20 -143 0 -150 1 -150 20 0 17 7 20 40 20 l40 0 0 455 0
455 -56 0 c-47 0 -55 3 -52 18 3 14 21 19 98 28 52 6 105 12 118 13 l22 1 0
-485z m-395 390 c16 -15 25 -36 25 -55 0 -36 -38 -80 -69 -80 -35 0 -69 22
-81 51 -33 78 65 144 125 84z m-305 -49 c0 -10 -17 -17 -54 -21 l-55 -7 -3
-447 c-4 -427 -5 -449 -26 -512 -26 -80 -84 -150 -143 -173 -65 -26 -156 -31
-220 -12 -65 18 -88 40 -96 89 -7 47 29 87 80 87 l35 0 -1 -50 c-1 -67 20 -90
84 -90 58 0 98 29 125 92 18 40 19 81 22 529 l3 487 -56 7 c-38 4 -55 11 -55
21 0 12 31 14 180 14 149 0 180 -2 180 -14z m1430 -56 c13 -13 20 -33 20 -56
0 -44 -42 -88 -101 -105 l-39 -12 28 -14 c70 -37 112 -109 112 -194 -1 -132
-88 -211 -257 -230 -47 -5 -94 -14 -104 -19 -44 -24 -42 -72 3 -83 13 -3 70
-11 128 -17 227 -23 292 -54 306 -147 25 -169 -191 -302 -430 -265 -161 25
-237 105 -206 217 13 47 46 87 89 110 l29 15 -34 34 c-21 21 -34 44 -34 59 0
35 37 75 84 91 l38 13 -42 24 c-134 75 -158 255 -49 354 63 57 100 69 216 70
83 2 107 5 123 20 25 23 44 80 37 115 -4 15 -3 30 0 34 14 13 64 5 83 -14z
m1426 -181 c74 -36 106 -89 112 -183 l5 -76 -217 0 -216 0 0 -53 c0 -127 37
-233 93 -267 73 -45 202 -17 267 57 48 54 84 26 40 -30 -34 -42 -118 -78 -202
-84 -144 -11 -246 45 -305 166 -25 50 -28 67 -28 161 0 141 30 214 112 277 88
67 239 82 339 32z m690 23 c25 -16 34 -49 23 -81 l-11 -32 -58 7 c-69 8 -117
-6 -160 -46 l-30 -28 0 -216 0 -216 55 0 c48 0 55 -2 55 -20 0 -19 -7 -20
-165 -20 -158 0 -165 1 -165 20 0 17 7 20 45 20 l45 0 0 280 0 280 -24 0 c-45
0 -86 13 -86 26 0 9 12 14 33 14 17 0 69 3 115 7 l82 6 0 -79 1 -79 19 36 c23
43 67 87 112 112 33 17 94 23 114 9z m590 -27 c106 -52 168 -165 167 -305 -1
-138 -62 -243 -171 -297 -50 -25 -68 -28 -152 -28 -116 0 -178 24 -241 92 -67
73 -84 121 -84 238 0 89 3 106 28 157 36 74 110 140 179 161 80 25 203 17 274
-18z m-3816 -280 l0 -305 45 0 c38 0 45 -3 45 -20 0 -19 -7 -20 -150 -20 -143
0 -150 1 -150 20 0 17 7 20 40 20 l40 0 0 280 0 280 -55 0 c-48 0 -55 3 -55
20 0 20 -1 20 193 28 l47 2 0 -305z m1454 43 c-5 -242 -4 -266 13 -298 13 -25
29 -39 58 -48 57 -19 102 -3 155 54 66 72 70 88 70 307 l0 195 -31 6 c-17 3
-42 6 -55 6 -14 0 -24 6 -24 14 0 13 96 26 196 26 l44 0 2 -302 3 -303 53 -3
c36 -2 52 -7 52 -17 0 -13 -24 -17 -177 -28 l-52 -4 -3 75 -3 75 -31 -50 c-74
-119 -281 -141 -362 -38 -40 50 -45 96 -39 326 l6 217 -31 6 c-17 3 -42 6 -55
6 -15 0 -23 5 -21 13 5 13 68 23 170 25 l68 2 -6 -262z m1331 -829 c49 -12 69
-31 79 -71 4 -18 1 -32 -10 -43 -26 -26 -49 -15 -52 27 -4 48 -30 70 -78 66
-31 -2 -43 -10 -61 -37 -19 -29 -23 -47 -23 -118 0 -57 5 -96 16 -118 29 -62
109 -68 163 -13 16 16 32 25 35 20 18 -29 -33 -66 -105 -77 -60 -9 -126 19
-160 66 -35 50 -40 162 -9 217 23 41 64 71 114 83 44 10 43 10 91 -2z m425
-14 c106 -54 120 -238 25 -313 -74 -58 -188 -50 -249 18 -39 43 -51 87 -44
161 12 124 152 193 268 134z m280 -22 c1 -35 2 -37 15 -19 26 35 69 56 112 56
57 0 89 -14 106 -46 14 -27 14 -27 26 -6 26 48 121 68 181 37 43 -22 53 -73
45 -212 l-7 -113 26 0 c14 0 26 -4 26 -10 0 -6 -33 -10 -80 -10 -47 0 -80 4
-80 10 0 6 9 10 20 10 20 0 20 5 18 147 -3 147 -3 147 -29 162 -22 12 -31 13
-58 1 -56 -23 -67 -51 -75 -187 l-7 -123 26 0 c14 0 25 -4 25 -10 0 -6 -33
-10 -80 -10 -47 0 -80 4 -80 10 0 6 9 10 20 10 20 0 20 5 18 147 -3 147 -3
147 -29 162 -34 19 -76 3 -110 -42 -22 -29 -24 -41 -24 -147 l0 -115 28 -3
c15 -2 27 -8 27 -13 0 -5 -38 -9 -85 -9 -50 0 -85 4 -85 10 0 6 9 10 20 10 19
0 20 7 20 155 l0 155 -30 0 c-16 0 -30 4 -30 9 0 10 32 17 93 20 36 1 37 0 37
-36z m-1030 -258 c15 -19 6 -61 -16 -69 -42 -16 -75 24 -54 64 13 24 52 27 70
5z"/>
<path d="M2495 3233 c-107 -15 -207 -60 -312 -139 -164 -125 -299 -345 -348
-569 -7 -33 -23 -79 -34 -102 -70 -141 -69 -372 5 -600 56 -176 190 -399 322
-537 66 -68 209 -186 295 -244 77 -52 169 -105 128 -75 -239 176 -330 257
-437 385 -220 264 -353 640 -315 887 6 40 21 99 32 130 31 84 44 128 68 216
45 170 174 371 306 478 84 68 204 124 295 138 147 23 293 -25 420 -137 l65
-58 -58 60 c-65 68 -137 115 -218 143 -56 20 -163 32 -214 24z"/>
<path d="M2552 3085 c-127 -28 -223 -107 -226 -182 l-1 -38 68 -7 c86 -10 100
-18 129 -70 22 -39 27 -43 61 -42 28 1 52 13 97 48 75 59 113 75 203 84 59 6
72 10 75 26 5 25 -108 135 -169 164 -60 29 -155 36 -237 17z"/>
<path d="M1502 1216 c114 -57 265 -135 335 -172 150 -79 143 -59 -16 48 -128
86 -228 136 -357 181 -180 63 -171 50 38 -57z"/>
<path d="M2052 897 c99 -92 283 -198 228 -132 -47 56 -254 197 -287 195 -4 -1
22 -29 59 -63z"/>
<path d="M2545 881 c-38 -10 -89 -27 -113 -40 -42 -21 -126 -90 -119 -97 4 -5
236 95 302 129 40 21 45 26 25 26 -14 0 -56 -8 -95 -18z"/>
<path d="M2339 692 c47 -67 287 -258 347 -278 11 -3 -22 35 -73 84 -88 86
-173 154 -258 203 l-40 24 24 -33z"/>
<path d="M6382 2700 c-49 -30 -72 -89 -72 -185 0 -134 44 -198 136 -198 53 0
89 23 115 74 42 81 32 233 -20 291 -37 41 -110 49 -159 18z"/>
<path d="M6296 2050 c-52 -62 -53 -151 -3 -198 82 -77 271 -69 359 15 60 58
58 137 -5 166 -26 12 -256 47 -311 47 -8 0 -26 -14 -40 -30z"/>
<path d="M7900 2688 c-39 -27 -70 -82 -77 -138 l-6 -40 147 0 146 0 0 50 c0
93 -49 150 -130 150 -32 0 -57 -7 -80 -22z"/>
<path d="M9185 2705 c-22 -8 -50 -27 -63 -42 -70 -87 -79 -347 -15 -464 57
-106 196 -119 268 -25 70 92 74 384 7 475 -45 62 -123 84 -197 56z"/>
<path d="M8670 1628 c-45 -23 -61 -72 -58 -170 2 -69 7 -92 24 -115 41 -55
106 -56 146 -2 23 30 34 124 24 193 -12 80 -77 124 -136 94z"/>
</g>
</svg>
